<?xml version="1.0" encoding="UTF-8"?>
<svg version="1.1" xmlns="http://www.w3.org/2000/svg" width="885" height="1410">
<path d="M0 0 C5.24286603 -0.10053434 10.4851445 -0.17223435 15.72875977 -0.21972656 C17.50425006 -0.23956981 19.27967751 -0.26665345 21.05493164 -0.30175781 C35.43195753 -0.57847385 51.03835018 -0.41902117 63.23828125 8.2421875 C65 10 65 10 66.68676758 13.00390625 C69.60278384 16.78072436 71.11538715 17.00012681 75.7734375 17.6953125 C76.46368011 17.80400665 77.15392273 17.91270081 77.86508179 18.02468872 C80.23981724 18.38477759 82.61732688 18.69698174 85 19 C85.87982544 19.11468628 86.75965088 19.22937256 87.6661377 19.34753418 C95.6725843 20.37857437 103.69009699 21.31678838 111.71142578 22.22412109 C160.47151073 27.7778909 160.47151073 27.7778909 178 43 C178.58749023 43.81130371 179.17498047 44.62260742 179.78027344 45.45849609 C182.33935714 48.38855123 184.28702669 49.31958656 187.890625 50.7265625 C189.06286621 51.19521729 190.23510742 51.66387207 191.44287109 52.14672852 C192.37326202 52.50772141 192.37326202 52.50772141 193.32244873 52.87600708 C196.62093072 54.15770563 199.89898096 55.49001893 203.1796875 56.81640625 C203.84380646 57.08357956 204.50792542 57.35075287 205.19216919 57.62602234 C214.31489762 61.31166169 223.22191008 65.46347214 232.12353516 69.64990234 C235.00797145 71.00374148 237.90002343 72.34023815 240.79296875 73.67578125 C300.73657648 101.57890523 300.73657648 101.57890523 305.09765625 111.49609375 C305.41605469 112.46675781 305.73445312 113.43742187 306.0625 114.4375 C307.15246676 117.72490977 308.06392335 120.09588502 310 123 C312.60390932 123.82028982 315.09325272 124.48401471 317.75 125.0625 C319.16197497 125.38446133 320.57344429 125.70864905 321.984375 126.03515625 C322.66935059 126.19105225 323.35432617 126.34694824 324.06005859 126.50756836 C326 127 326 127 329.1484375 128.1328125 C332.2789754 129.08483909 334.62593844 128.97193671 337.875 128.8125 C341.87621237 129.11382587 343.45630446 129.43668658 346.2734375 132.35546875 C348.05768126 135.19403837 349.60985233 137.99836978 351.05126953 141.01855469 C352.01580387 143.03300674 353.04589718 145.00225692 354.08984375 146.9765625 C363.22253958 164.70759431 365.841036 181.17024007 365 201 C370.28 202.32 375.56 203.64 381 205 C381.66 207.619375 382.32 210.23875 383 212.9375 C385.4009595 222.26250613 388.29394317 231.40551177 391.3203125 240.54467773 C391.65289063 241.55731689 391.98546875 242.56995605 392.328125 243.61328125 C392.6262207 244.50829346 392.92431641 245.40330566 393.23144531 246.32543945 C395.71878761 254.98135903 396.19622673 263.37308104 392.55859375 271.69921875 C391.22092225 277.20892864 393.4183364 282.54023119 395.22290039 287.7121582 C398.50579245 297.14653513 401.73319665 306.87763951 397.4375 316.5 C396.7259375 317.7375 396.7259375 317.7375 396 319 C396.50176761 323.13776482 397.96205293 326.98806738 399.25 330.9375 C403.26042426 343.96881277 404.90253206 357.56233763 407 371 C407.71840076 375.52263162 408.45028569 380.04290347 409.1875 384.5625 C409.34226807 385.54871338 409.49703613 386.53492676 409.65649414 387.55102539 C411.47913708 398.77727693 415.82569624 403.81865621 424.98974609 410.43701172 C427.20677954 411.98243076 429.4411149 413.49757849 431.6875 415 C432.45433105 415.51522217 433.22116211 416.03044434 434.01123047 416.5612793 C437.75100017 419.02671368 441.47283747 421.2994969 445.49609375 423.2734375 C446.19323486 423.63179688 446.89037598 423.99015625 447.60864258 424.359375 C449.59182047 425.39039195 449.59182047 425.39039195 451.58081055 426.1796875 C453.3515625 427.0859375 453.3515625 427.0859375 456 430 C456.96020855 439.11325734 455.73214711 448.51873451 454.7578125 457.59375 C454.49413282 460.18015011 454.23071488 462.76657691 453.9675293 465.35302734 C453.82839757 466.69849103 453.68902148 468.04392948 453.54940796 469.38934326 C451.28522827 491.25681505 449.30405759 513.08912744 448.40771484 535.06227112 C447.73991478 551.24751386 447.73991478 551.24751386 445.390625 553.63671875 C444.68421875 553.98347656 443.9778125 554.33023438 443.25 554.6875 C437.80516845 557.82002328 433.86264047 561.95767258 429.60644531 566.5065918 C426.60831587 569.64505725 424.29221841 571.76002579 420 573 C420.69867187 574.08539062 421.39734375 575.17078125 422.1171875 576.2890625 C423.03679537 577.73416058 423.95604745 579.17948511 424.875 580.625 C425.33519531 581.33785156 425.79539062 582.05070313 426.26953125 582.78515625 C430.06007537 588.77311726 432.28087489 593.92024508 432.4375 601.125 C432.47746094 602.13820313 432.51742187 603.15140625 432.55859375 604.1953125 C431.80257229 607.9912804 430.05960904 608.75120975 427 611 C418.03923382 623.96626995 417.51001077 640.05798134 417.75 655.25 C417.76200363 656.74510997 417.77305249 658.24022787 417.78320312 659.73535156 C417.87127255 669.85925835 418.2213221 679.96784426 418.63696289 690.08325195 C421.92843064 775.40076309 421.92843064 775.40076309 404 797 C396.70806317 796.47914737 390.90488624 794.90488624 385.625 789.625 C382.98914303 785.3670772 382 782.00806642 382 777 C378.3123678 779.29045478 377.35794434 781.12173328 376.1875 785.25 C373.15893378 794.0017503 368.19077713 797.68733512 360.0625 801.8125 C349.16641848 807.02434584 337.87360669 809.05716446 325.8828125 806.27734375 C320.1283148 804.16849964 316.78558857 801.57117714 314 796 C313.03314463 786.9760165 317.28257411 780.44856719 322 773 C319.03 773 316.06 773 313 773 C310.22684746 796.80852916 308.987021 823.85114794 323.61328125 844.25 C325.9199801 847.08901398 327.48302503 848.82767501 331 850 C333.69167794 848.7732482 333.69167794 848.7732482 336.5625 846.9375 C337.63242187 846.29425781 338.70234375 845.65101563 339.8046875 844.98828125 C341.78216583 843.75779657 343.7483508 842.50869143 345.6953125 841.23046875 C350.92121684 837.8639379 355.61214465 835.23392879 362 836 C364.67174061 837.06968212 366.61935111 838.32848057 369 840 C369 844.49257436 368.27315575 845.62129441 365.88671875 849.296875 C365.22075684 850.33086426 364.55479492 851.36485352 363.86865234 852.43017578 C363.14887207 853.52571777 362.4290918 854.62125977 361.6875 855.75 C360.95214866 856.88103049 360.21728767 858.01237993 359.48291016 859.14404297 C355.33999706 865.51024175 351.15030127 871.84687565 346.875 878.125 C346.46338623 878.73182617 346.05177246 879.33865234 345.62768555 879.96386719 C344.44883865 881.66763368 343.23748391 883.33839507 342 885 C341.52328857 885.65323242 341.04657715 886.30646484 340.55541992 886.97949219 C336.7507529 891.86012173 336.7507529 891.86012173 333.31640625 892.5 C332.40761719 892.335 331.49882813 892.17 330.5625 892 C329.53769531 891.84660156 328.51289062 891.69320312 327.45703125 891.53515625 C326.31621094 891.35855469 325.17539062 891.18195312 324 891 C321.25288489 890.75958581 318.50284089 890.59714187 315.75 890.4375 C314.46609375 890.35371094 313.1821875 890.26992188 311.859375 890.18359375 C310.91578125 890.12300781 309.9721875 890.06242188 309 890 C308.846521 890.79567383 308.846521 890.79567383 308.68994141 891.60742188 C307.64500783 896.93228887 306.51356582 902.23434289 305.3359375 907.53125 C297.52871737 942.90065198 292.31468809 978.6780929 287.0625 1014.5 C286.91279755 1015.52019226 286.76309509 1016.54038452 286.6088562 1017.5914917 C286.18540564 1020.4876452 285.76569524 1023.38431091 285.34765625 1026.28125 C285.22512482 1027.12076202 285.10259338 1027.96027405 284.97634888 1028.82522583 C283.48996898 1039.21420737 282.77192947 1049.44010288 282.6875 1059.9375 C282.65849609 1061.13568359 282.62949219 1062.33386719 282.59960938 1063.56835938 C282.42966114 1087.55720702 300.1251297 1107.48015542 313.72558594 1125.85302734 C343 1165.41759846 343 1165.41759846 343 1173 C343.82757812 1173.23460937 344.65515625 1173.46921875 345.5078125 1173.7109375 C349.64334686 1175.23747703 353.14159766 1177.30971173 356.875 1179.625 C357.56335938 1180.04523438 358.25171875 1180.46546875 358.9609375 1180.8984375 C360.64391658 1181.92692472 362.32242532 1182.962721 364 1184 C362.75023244 1187.65316671 362.32901247 1188.78065836 359 1191 C354.8209829 1190.73670167 352.69928845 1189.24509941 349.6875 1186.4375 C348.64142578 1185.47650391 348.64142578 1185.47650391 347.57421875 1184.49609375 C347.05472656 1184.00238281 346.53523437 1183.50867187 346 1183 C346.03480469 1184.92199219 346.03480469 1184.92199219 346.0703125 1186.8828125 C346.477397 1218.43339165 336.52819229 1242.46678419 319.56591797 1268.57324219 C309.9737146 1283.43861505 300.71045547 1298.58549068 296.125 1315.8125 C295.08871231 1319.2620604 294.63356722 1320.59292541 291.57421875 1322.55859375 C289.76428335 1323.33940039 287.94126618 1324.09069894 286.10546875 1324.80859375 C285.41066406 1325.20175781 284.71585938 1325.59492187 284 1326 C283.58977281 1329.52000529 283.58977281 1329.52000529 283.62890625 1331.8984375 C282.37615447 1336.08465153 277.81205737 1337.78610975 274.265625 1339.9375 C269.30461457 1343.07076975 265.22609347 1346.95703725 261 1351 C259.96359375 1351.92425781 259.96359375 1351.92425781 258.90625 1352.8671875 C252.62661675 1358.70162287 247.74135724 1365.52427885 242.67382812 1372.39575195 C237.40371156 1379.52915518 231.92259276 1386.39442322 226 1393 C225.37480469 1393.75410156 224.74960937 1394.50820312 224.10546875 1395.28515625 C221.26200632 1397.60107463 219.12901588 1397.63916874 215.5 1397.9375 C208.28677411 1398.78963239 202.52601996 1400.90872739 196 1404 C194.00101107 1404.91886943 192.0010444 1405.83561547 190 1406.75 C189.13375 1407.15734375 188.2675 1407.5646875 187.375 1407.984375 C182.99193046 1409.85871395 179.27549492 1410.16011758 174.5 1410.1875 C172.81390625 1410.20876953 172.81390625 1410.20876953 171.09375 1410.23046875 C168.09725319 1410.00724487 166.43325222 1409.72737953 164 1408 C162.03394555 1402.10183665 161.91970107 1395.3915154 163.8125 1389.44921875 C167.40669177 1382.76626843 173.10499084 1377.63837328 178.61743164 1372.52783203 C185.32397642 1366.18681993 188.3961949 1360.2080278 189 1351 C188.85498047 1349.77603516 188.85498047 1349.77603516 188.70703125 1348.52734375 C189 1346 189 1346 191.15234375 1343.796875 C192.07144531 1343.12140625 192.99054687 1342.4459375 193.9375 1341.75 C195.31228516 1340.72132813 195.31228516 1340.72132813 196.71484375 1339.671875 C197.84599609 1338.84429688 197.84599609 1338.84429688 199 1338 C199.33 1337.67 199.66 1337.34 200 1337 C199.88140625 1336.26652344 199.7628125 1335.53304688 199.640625 1334.77734375 C199.18577077 1331.47055348 199.09086719 1329.23151471 200 1326 C202.68960006 1323.77031787 205.18492793 1322.1879598 208.28808594 1320.63842773 C211.86357716 1318.97691241 211.86357716 1318.97691241 213.91015625 1315.77734375 C213.93980469 1315.19082031 213.96945312 1314.60429688 214 1314 C212.02 1313.34 210.04 1312.68 208 1312 C208.1875 1310.125 208.1875 1310.125 209 1308 C211.55078125 1306.8671875 211.55078125 1306.8671875 214 1306 C199.38771156 1289.3038285 187.94223882 1283.14132067 166 1281 C165.67 1279.35 165.34 1277.7 165 1276 C166.65 1274.68 168.3 1273.36 170 1272 C152.17314113 1275.41592505 133.84363084 1282.86226161 122.4375 1297.43359375 C117.87887366 1305.57222828 117.71370644 1312.77960711 118.38085938 1321.890625 C118.62662013 1328.2129409 118.62662013 1328.2129409 116.68603516 1330.65039062 C115.05078125 1331.984375 115.05078125 1331.984375 112 1334 C110.05877266 1337.88245467 110.50761218 1342.2591614 111.66015625 1346.33398438 C112.56398383 1348.82457652 113.52322617 1351.28714975 114.5 1353.75 C117.96371227 1363.09131944 120.08011151 1371.12513943 116.5 1380.8125 C113.51786094 1386.62872867 108.84457715 1390.63697345 103 1393.4375 C95.34079963 1394.87360007 88.75242786 1394.24889427 82.234375 1389.79296875 C79.65826494 1387.72332693 77.83893705 1385.75840557 76 1383 C74.1003701 1382.39199867 74.1003701 1382.39199867 71.88671875 1382.2265625 C70.64184692 1382.07682983 70.64184692 1382.07682983 69.37182617 1381.92407227 C68.48599854 1381.82537842 67.6001709 1381.72668457 66.6875 1381.625 C55.23472466 1380.13445121 45.98509678 1376.84221191 36 1371 C35.17475108 1328.74725518 37.13007376 1285.79861154 43.5625 1244 C43.66841461 1243.30511475 43.77432922 1242.61022949 43.88345337 1241.89428711 C45.63944123 1230.54083816 45.63944123 1230.54083816 48 1227 C49.65 1227.33 51.3 1227.66 53 1228 C53.556875 1227.05125 54.11375 1226.1025 54.6875 1225.125 C57.37530218 1221.92386021 59.56029894 1221.47482016 63.6484375 1220.96875 C64.81109131 1220.81293457 65.97374512 1220.65711914 67.17163086 1220.49658203 C68.43499268 1220.33270996 69.69835449 1220.16883789 71 1220 C73.69827576 1219.59955154 76.39453986 1219.19277993 79.08984375 1218.7734375 C79.79603348 1218.66381683 80.50222321 1218.55419617 81.22981262 1218.44125366 C134.0202286 1210.17350077 181.88812239 1190.58324737 230.41853333 1169.11096191 C233.54830987 1167.72649808 236.67948967 1166.34523543 239.8112793 1164.96533203 C241.25542354 1164.32839435 242.69896016 1163.69007694 244.1418457 1163.05029297 C246.09745117 1162.18437466 248.05601457 1161.32555805 250.015625 1160.46875 C251.10649414 1159.98857422 252.19736328 1159.50839844 253.32128906 1159.01367188 C256 1158 256 1158 259 1158 C258.9685791 1157.29391602 258.9371582 1156.58783203 258.90478516 1155.86035156 C258.77996761 1152.65722776 258.70199876 1149.45461487 258.625 1146.25 C258.57472656 1145.13882812 258.52445313 1144.02765625 258.47265625 1142.8828125 C258.41722768 1139.81576518 258.44301449 1137.01743328 259 1134 C261.86710384 1131.09994095 263.56760786 1130.21902021 267.5546875 1129.609375 C268.32039062 1129.65578125 269.08609375 1129.7021875 269.875 1129.75 C270.65617188 1129.78609375 271.43734375 1129.8221875 272.2421875 1129.859375 C273.11230469 1129.92898438 273.11230469 1129.92898438 274 1130 C269.26904781 1114.66092961 269.26904781 1114.66092961 259 1103 C257.9790625 1103.77601562 256.958125 1104.55203125 255.90625 1105.3515625 C238.76146567 1118.16902413 220.32171073 1128.82009631 201 1138 C199.89140625 1138.55558594 198.7828125 1139.11117188 197.640625 1139.68359375 C144.90111719 1165.51640696 83.15998818 1175.1190368 25 1168 C24.63238512 1162.59299781 24.63238512 1162.59299781 26.3125 1159.8828125 C26.869375 1159.30273438 27.42625 1158.72265625 28 1158.125 C28.556875 1157.52945312 29.11375 1156.93390625 29.6875 1156.3203125 C30.120625 1155.88460938 30.55375 1155.44890625 31 1155 C0.06392774 1144.59198633 -34.13368743 1141.30404502 -65 1154 C-66.51169165 1154.76910628 -68.014154 1155.55707716 -69.5 1156.375 C-73.83754831 1158.38886172 -75.45831727 1158.48779262 -80 1157 C-90.20754378 1151.14491144 -98.66069312 1142.52523992 -106.796875 1134.140625 C-107.52390625 1133.43421875 -108.2509375 1132.7278125 -109 1132 C-109.89589844 1131.10796875 -110.79179687 1130.2159375 -111.71484375 1129.296875 C-115.453063 1126.23907982 -119.13139483 1126.20398325 -123.8125 1126 C-137.0568153 1125.00735228 -149.43378559 1121.67828105 -161 1115 C-161.20413361 1109.26157749 -161.27141454 1104.39460953 -159 1099 C-152.84932952 1099.49012077 -148.25007595 1100.98127014 -142.6875 1103.5625 C-136.06975224 1106.47375808 -130.32600378 1108.2567024 -123 1107 C-122.34 1106.67 -121.68 1106.34 -121 1106 C-126.09868054 1101.24604157 -130.82236336 1099.37571481 -137.4296875 1097.41601562 C-139.515625 1096.72265625 -139.515625 1096.72265625 -143 1095 C-144.40625 1092.05078125 -144.40625 1092.05078125 -145 1089 C-150.30592204 1071.98222564 -165.41459393 1063.71319519 -179.859375 1054.93359375 C-183 1053 -183 1053 -184 1052 C-184.4375 1049.75 -184.4375 1049.75 -184 1047 C-181.16566396 1044.29163445 -178.25710495 1042.1714033 -175 1040 C-172.12208397 1040.38468264 -169.7746547 1041.50736374 -167.2109375 1042.828125 C-154.55038177 1049.17988419 -141.61851279 1054.37017116 -128.34521484 1059.26855469 C-126.95111716 1059.78608626 -125.55739501 1060.30463065 -124.1640625 1060.82421875 C-123.48540131 1061.07699081 -122.80674011 1061.32976288 -122.10751343 1061.5901947 C-115.96843497 1063.92238396 -110.10521052 1066.72489578 -104.23388672 1069.66015625 C-98.76222407 1071.92714135 -94.65690566 1071.31555946 -89 1070 C-88.28602051 1069.84370117 -87.57204102 1069.68740234 -86.83642578 1069.52636719 C-71.40655758 1066.08492462 -56.42033386 1061.01791941 -41.42993164 1056.05151367 C-40.64571335 1055.79241211 -39.86149506 1055.53331055 -39.05351257 1055.26635742 C-37.57479152 1054.77694367 -36.09695798 1054.28483697 -34.62019348 1053.78955078 C-31.11343454 1052.62759419 -27.66914643 1051.49563241 -24 1051 C-23.67 1051.33 -23.34 1051.66 -23 1052 C-23.35499208 1059.21817221 -23.35499208 1059.21817221 -26.0625 1062.5 C-26.701875 1062.995 -27.34125 1063.49 -28 1064 C-15.29232055 1068.23589315 0.43105918 1062.2626754 12 1057 C19.81778199 1052.94508722 29.26294623 1047.65865757 34 1040 C33.91246354 1038.00725801 33.91246354 1038.00725801 33.171875 1035.9140625 C31.96201573 1030.89994967 31.92894236 1026.32367729 32.078125 1021.2109375 C32.10415338 1019.59377023 32.12887032 1017.97658137 32.15234375 1016.359375 C32.19123605 1013.85648333 32.25061054 1011.36258173 32.37353516 1008.86230469 C33.12483716 999.64662887 33.12483716 999.64662887 29.70565796 991.49688721 C25.87566096 988.45522365 21.52417576 986.76343429 17 985 C15.40320114 984.19845431 13.81386948 983.38153733 12.23828125 982.5390625 C10.93184473 981.89663599 9.62334813 981.25837616 8.3125 980.625 C4.75442255 978.89183907 1.30174758 977.20116505 -2 975 C-1.75170379 970.77896441 -1.48782755 968.56693471 1.3125 965.3125 C4 963 4 963 6.3125 961.375 C9.20918423 957.29818515 8.67464165 952.81330872 8 948 C7.1302264 945.45816163 6.11479588 943.15792402 4.875 940.77734375 C4 939 4 939 4 937 C2.98164063 937.01571045 1.96328125 937.0314209 0.9140625 937.04760742 C-2.89526333 937.10226104 -6.70455509 937.13647774 -10.51416016 937.16479492 C-12.15712326 937.17980136 -13.80004686 937.20021312 -15.44287109 937.22631836 C-17.81618042 937.26306359 -20.18895625 937.27980772 -22.5625 937.29296875 C-23.28679199 937.30845261 -24.01108398 937.32393646 -24.75732422 937.33988953 C-31.0066707 937.34191211 -36.49070156 936.05891154 -41.4375 932 C-43 930 -43 930 -44 927 C-41.63138093 925.81569047 -40.15590673 925.85704431 -37.51293945 925.82641602 C-36.11426384 925.80618126 -36.11426384 925.80618126 -34.68733215 925.78553772 C-33.67289536 925.77509933 -32.65845856 925.76466095 -31.61328125 925.75390625 C-29.45507485 925.72091661 -27.29687182 925.68770598 -25.13867188 925.65429688 C-21.74473861 925.60727059 -18.35081354 925.56294878 -14.95678711 925.52319336 C16.34290034 925.39816835 16.34290034 925.39816835 45 914 C40.48044911 911.46961381 36.25840291 910.2778758 31.1875 909.5 C30.08414307 909.3151001 30.08414307 909.3151001 28.95849609 909.12646484 C25.14290612 908.48850663 21.32131478 907.89723108 17.49609375 907.3203125 C10.89919 906.28700965 4.91422243 905.23186213 -1.125 902.1875 C-5.04786415 900.14593952 -5.04786415 900.14593952 -9.4375 900.6875 C-11.2009375 901.3371875 -11.2009375 901.3371875 -13 902 C-25.64747701 903.48444566 -37.99537772 899.40477771 -49.81396484 895.36645508 C-62.50477499 891.07719121 -74.67306709 889.09798616 -88 888 C-88.75526978 887.93768188 -89.51053955 887.87536377 -90.28869629 887.81115723 C-119.19975014 885.42111066 -119.19975014 885.42111066 -148.18701172 884.55419922 C-155.03846069 884.43204252 -160.62735363 883.20645661 -165.71923828 878.36547852 C-166.14188965 877.91487061 -166.56454102 877.4642627 -167 877 C-166.4375 875.1875 -166.4375 875.1875 -165 873 C-162.6352947 871.79351771 -160.48477376 870.87201494 -158 870 C-156.85144531 869.57847656 -156.85144531 869.57847656 -155.6796875 869.1484375 C-150.57892345 867.34717759 -147.05536653 866.11092286 -141.78515625 868.390625 C-140.54209192 869.00603494 -139.30131784 869.626086 -138.0625 870.25 C-118.95240625 879.48976407 -96.58186844 883.98119615 -76 877 C-75.34 876.67 -74.68 876.34 -74 876 C-66.95291481 876.11645244 -60.16593242 877.76255384 -53.375 879.5 C-39.95359718 882.90397898 -27.35575837 884.9596488 -14 880 C-9.00161006 877.01154464 -6.19638919 873.42637329 -4 868 C0.08470085 868.74267288 4.0142804 869.84512718 8 871 C3.62518838 862.95837768 -0.8266538 855.05917174 -6 847.5 C-9.62427891 842.19291865 -12.96768336 836.78593686 -16.125 831.1875 C-16.51558594 830.49914062 -16.90617187 829.81078125 -17.30859375 829.1015625 C-20 824.25703125 -20 824.25703125 -20 822 C-24.75229097 824.27849567 -26.25888698 826.80634821 -28.5 831.5 C-30.70998791 836.12846524 -32.17554977 838.94624797 -37 841 C-42.1880471 840.58160911 -44.98925315 839.47755059 -48.5625 835.6875 C-52.14562577 831.22287632 -54.68886386 826.26097184 -57.2265625 821.1484375 C-61.07442418 814.31721169 -65.96101639 810.25124901 -72.1875 805.6875 C-90.98767826 791.57177827 -90.98767826 791.57177827 -95 783 C-86.8436163 782.07313822 -80.19001873 786.058284 -72.95703125 789.41015625 C-71.52423828 790.07337891 -71.52423828 790.07337891 -70.0625 790.75 C-69.20785156 791.15734375 -68.35320312 791.5646875 -67.47265625 791.984375 C-59.72014634 795.16866027 -52.49108437 794.4564098 -44.82421875 791.43359375 C-35.63958177 786.77140596 -29.59802772 778.28578236 -23.54296875 770.234375 C-17.39866713 762.32007639 -17.39866713 762.32007639 -12.72265625 761.25 C-11.51480469 761.1675 -10.30695313 761.085 -9.0625 761 C-0.17861824 760.18015281 7.50479346 757.34377685 15.7109375 753.84375 C18 753 18 753 21 753 C20.9498877 752.41863785 20.89977539 751.8372757 20.84814453 751.23829651 C20.32451479 745.15477417 19.80625038 739.07081123 19.29101562 732.98657227 C19.09836484 730.71985474 18.90437368 728.45325069 18.70898438 726.18676758 C18.42740991 722.91777427 18.1507534 719.64839512 17.875 716.37890625 C17.78750488 715.37541641 17.70000977 714.37192657 17.60986328 713.33802795 C17.12587391 707.53426385 16.91593695 701.82399306 17 696 C19 695.33333333 21 694.66666667 23 694 C23.61584961 693.77924805 24.23169922 693.55849609 24.86621094 693.33105469 C36.72482921 689.1551483 36.72482921 689.1551483 41.3984375 690.890625 C43.71914011 693.0644477 45.26955652 695.32380919 47 698 C47.91528952 699.320871 48.83349971 700.63972077 49.75390625 701.95703125 C53.96348161 708.07372965 57.94120008 714.3381101 61.93359375 720.59765625 C69.54686549 732.51669827 77.9197968 743.09566351 87.55908203 753.44580078 C89.01582735 755.01707166 90.46081975 756.59835433 91.90234375 758.18359375 C97.63276017 764.49795611 97.63276017 764.49795611 103.625 770.5625 C107.30970026 774.18564202 110.51591005 778.16324147 113.74609375 782.19140625 C115.15414039 783.9459739 116.58098605 785.68580887 118.03515625 787.40234375 C131.64067406 803.65863838 141.36462459 823.32196372 140 845 C139.5 848.125 139.5 848.125 139 850 C135.55564834 846.72756951 132.85139471 843.50936084 130.3125 839.5 C123.536378 829.1335447 115.71706322 819.60165978 107.89453125 810.01928711 C85.80288585 782.94077764 85.80288585 782.94077764 80.4921875 774.64453125 C79.12785882 772.8009957 79.12785882 772.8009957 76.9140625 772.64453125 C75.78097656 772.72767578 75.78097656 772.72767578 74.625 772.8125 C71.20968956 773.02962455 68.34213782 772.77353366 65 772 C64.97283911 775.02089478 64.95308343 778.04154129 64.9375 781.0625 C64.92912109 781.91005859 64.92074219 782.75761719 64.91210938 783.63085938 C64.89316964 788.53625116 65.25713117 793.14063248 66 798 C66.7923214 807.59219686 67.45743785 817.23708734 61 825 C57.68458865 828.34486531 54.24788521 831.55072987 50.70117188 834.64892578 C46.23972549 838.57830182 42.59364823 842.02821068 41.671875 848.1953125 C41.80981512 851.60243354 42.09565959 854.71811949 43 858 C42.13117188 858.30292969 41.26234375 858.60585938 40.3671875 858.91796875 C29.95086258 862.50048018 29.95086258 862.50048018 22.625 870.3125 C22.315625 871.1478125 22.315625 871.1478125 22 872 C23.12921875 872.08378906 24.2584375 872.16757812 25.421875 872.25390625 C30.47481204 872.88607889 34.66032045 874.82227669 39.25 876.9375 C47.79076174 880.71234888 55.58629953 883 65 883 C65.68124706 881.00491933 66.34427209 879.00361307 67 877 C67.350625 875.96875 67.70125 874.9375 68.0625 873.875 C69.33378311 868.62036313 69.66397956 863.38516972 70 858 C71.00353516 858.03480469 71.00353516 858.03480469 72.02734375 858.0703125 C88.24231018 858.37502328 105.79187262 856.31974266 120.796875 849.78125 C123.45366459 848.83912603 124.4009919 848.96861792 127 850 C128.46044922 851.80664063 128.46044922 851.80664063 129.8046875 854.15625 C130.55685547 855.44402344 130.55685547 855.44402344 131.32421875 856.7578125 C131.83597656 857.66273438 132.34773437 858.56765625 132.875 859.5 C133.890976 861.26171798 134.90919683 863.02214333 135.9296875 864.78125 C136.67980103 866.08509644 136.67980103 866.08509644 137.44506836 867.4152832 C139.43276931 870.7193796 141.6254644 873.85578003 143.88452148 876.97924805 C145.54149701 879.98095224 145.39268957 882.28478325 144.734375 885.58203125 C142.77885627 892.02068068 139.95297379 898.0427183 137.03125 904.08984375 C136.68586182 904.80914063 136.34047363 905.5284375 135.98461914 906.26953125 C135.31381548 907.65837165 134.63409802 909.04296311 133.94311523 910.421875 C123.80954553 931.2605609 116.54867708 963.47454681 123.953125 986.22265625 C125.26372915 988.44774911 126.91980876 989.5065361 129 991 C129.74612801 989.44663104 130.49221172 987.8932408 131.23828125 986.33984375 C131.72337158 985.33002441 132.20846191 984.32020508 132.70825195 983.27978516 C133.78998229 981.02611169 134.87052295 978.77186685 135.94995117 976.51708984 C138.61035667 970.9620732 141.2814455 965.41354004 144 959.88671875 C156.14959056 935.08356078 171.37179191 902.49704449 161.96484375 874.40625 C161.64644531 873.6121875 161.32804688 872.818125 161 872 C160.50693359 870.74703125 160.50693359 870.74703125 160.00390625 869.46875 C156.91655955 862.54625637 152.26011599 857.38617542 147 852 C149.24642489 847.78795333 151.71333289 843.957042 154.5625 840.125 C169.94401655 819.21753121 182.56696348 796.45784791 193.1875 772.8125 C193.53200195 772.05582031 193.87650391 771.29914062 194.23144531 770.51953125 C195.75272325 767.11257968 197.02748192 763.8995853 198.015625 760.2890625 C199.44446877 755.09436777 200.77248993 751.49487844 205.453125 748.625 C208.31917142 747.07494656 211.25203785 745.6883024 214.203125 744.30859375 C219.35551929 741.89939205 224.14921814 739.06250427 228.9375 736 C230.09995239 735.30668579 230.09995239 735.30668579 231.28588867 734.59936523 C234.99848508 732.19376915 237.32315638 730.39229587 238.3671875 725.98828125 C238.60574768 724.32925868 238.81364257 722.66569437 239 721 C239.34214762 718.8467737 239.69029258 716.69449565 240.04296875 714.54296875 C240.31717651 712.77167603 240.31717651 712.77167603 240.59692383 710.96459961 C245.01956347 682.67908579 250.39795149 652.92877415 267 629 C267.66 628.01 268.32 627.02 269 626 C259.86027027 620.92237237 251.72079277 619.83371511 241.375 619.75 C240.57537842 619.7406543 239.77575684 619.73130859 238.9519043 619.72167969 C233.65520572 619.75010073 229.09083709 620.53216139 224 622 C224.66 622.4125 225.32 622.825 226 623.25 C226.66 623.8275 227.32 624.405 228 625 C228 626.32 228 627.64 228 629 C221.7849506 631.71908411 216.75155137 632.4778528 210 632.375 C209.05737305 632.36919922 208.11474609 632.36339844 207.14355469 632.35742188 C198.78187679 632.2090385 190.56610989 631.27790299 182.296875 630.06787109 C174.07774569 628.878186 166.25556855 628.17513681 158.125 630.25 C155.34375 630.8125 155.34375 630.8125 153 631 C150.625 629.25 150.625 629.25 149 627 C144.60942881 624.70853999 140.03597715 624.3708208 135.1875 623.875 C134.39923828 623.78863281 133.61097656 623.70226562 132.79882812 623.61328125 C130.86656916 623.40248936 128.93336737 623.20037104 127 623 C126.8515625 619.640625 126.8515625 619.640625 127 616 C130.97813956 612.23123621 135.49540984 611.07800358 140.73046875 609.7109375 C143.24364025 609.04023752 143.24364025 609.04023752 146 607 C145.67 606.01 145.34 605.02 145 604 C136.5421905 601.18073017 128.80357487 603.44066741 120.5625 605.9375 C107.89491797 609.76010368 97.04545972 611.64992234 84.4375 606.5625 C82 605 82 605 81 602 C81.08578627 598.67149265 81.25848424 595.35511537 81.453125 592.03125 C81.32936319 588.78824495 81.32936319 588.78824495 78.484375 587.09375 C77.66453125 586.7328125 76.8446875 586.371875 76 586 C74.12916087 588.8062587 72.7983331 591.51306848 71.375 594.5625 C61.11578494 615.10571082 40.65529479 625.83578934 21 636 C21.57656042 638.91314736 21.852091 639.85657309 24.0625 642 C26 644 26 644 26 648 C25.34 648 24.68 648 24 648 C23.72929687 648.56460938 23.45859375 649.12921875 23.1796875 649.7109375 C21.94362038 652.10939887 20.5882406 654.35811431 19.125 656.625 C18.63257813 657.40101563 18.14015625 658.17703125 17.6328125 658.9765625 C15.88041728 661.14819103 14.59019839 662.02276491 12 663 C10.0625 663 10.0625 663 8 662 C-8.1332219 645.8667781 -7.03856032 618.70094762 -8.54248047 597.45581055 C-8.75352956 594.51328963 -8.98026955 591.57220632 -9.20703125 588.63085938 C-9.34210219 586.75527696 -9.47625291 584.87962799 -9.609375 583.00390625 C-9.6790448 582.12698624 -9.7487146 581.25006622 -9.82049561 580.34657288 C-9.96136116 578.23489579 -9.99100157 576.11635117 -10 574 C-7.77810176 571.77810176 -5.91517292 571.07401108 -3 570 C-3.66194803 566.97793423 -3.66194803 566.97793423 -5.64233398 565.9284668 C-6.33657471 565.60531494 -7.03081543 565.28216309 -7.74609375 564.94921875 C-8.50083984 564.57990234 -9.25558594 564.21058594 -10.03320312 563.83007812 C-11.62835836 563.07202304 -13.22732113 562.32192565 -14.83007812 561.58007812 C-20.67630105 558.69434661 -20.67630105 558.69434661 -22.53515625 554.70703125 C-22.68855469 553.81371094 -22.84195312 552.92039062 -23 552 C-18.69131905 548.09087091 -13.78390667 547.91562015 -8.21484375 547.0390625 C-4.90756352 546.31156047 -4.90756352 546.31156047 -3.37329102 543.82958984 C-1.86775163 540.72750958 -1.2990831 538.09358171 -0.8125 534.6875 C-0.65394531 533.61886719 -0.49539063 532.55023437 -0.33203125 531.44921875 C-0.16767578 530.23685547 -0.16767578 530.23685547 0 529 C0.97308105 528.88519287 1.94616211 528.77038574 2.94873047 528.65209961 C38.32734772 524.43238849 73.1123099 518.2958967 107 507 C114.09551811 505.98635456 117.57228455 508.22181943 123.2890625 512.37109375 C126.25746608 514.15470224 128.58100962 514.64406405 132 515 C134.39853998 510.43135242 136.24697589 505.84168563 138 501 C142.23398744 501.58467482 145.88978833 502.5867824 149.8515625 504.1796875 C150.95113281 504.61410156 152.05070313 505.04851562 153.18359375 505.49609375 C155.45497246 506.40619214 157.72581774 507.31762312 159.99609375 508.23046875 C177.88254482 515.3469911 177.88254482 515.3469911 196.5625 513.625 C200.05352558 512.40752954 200.05352558 512.40752954 201 510 C198.36 510 195.72 510 193 510 C192.90203125 508.83984375 192.8040625 507.6796875 192.703125 506.484375 C191.45752904 492.96138393 188.47432208 482.00580369 181.72998047 470.16137695 C178.04492456 463.6276585 178.04492456 463.6276585 178 460 C179.12352778 457.3552098 180.26586264 455.03373445 181.6875 452.5625 C182.21633789 451.59860352 182.21633789 451.59860352 182.75585938 450.61523438 C184.98269132 446.60530848 187.40923732 442.78380012 190 439 C187.69 438.01 185.38 437.02 183 436 C183.78083488 431.02091004 185.48599246 426.40982655 187.1875 421.6875 C187.46658203 420.87087891 187.74566406 420.05425781 188.03320312 419.21289062 C190.74572223 411.69807501 194.48259263 404.53760347 202 401 C201.34 400.34 200.68 399.68 200 399 C203.17232615 391.5801082 206.34961124 384.16237552 209.5340271 376.74766541 C211.29932973 372.63632382 213.05729045 368.52191376 214.8125 364.40625 C215.66634708 362.41652949 216.52049625 360.42693858 217.375 358.4375 C217.75446777 357.54281006 218.13393555 356.64812012 218.52490234 355.72631836 C226.21621864 337.89189068 226.21621864 337.89189068 230 336 C232.24925348 336.91904981 234.34588798 337.89131176 236.5 339 C237.127854 339.31743164 237.75570801 339.63486328 238.40258789 339.96191406 C243.11049646 342.40024915 247.40652868 345.19498081 251.62109375 348.421875 C254.58816622 350.39017923 257.72093575 351.62884616 261 353 C260.823479 352.09870361 260.64695801 351.19740723 260.46508789 350.26879883 C259.80134473 346.86103098 259.14429642 343.45210287 258.49145508 340.04223633 C258.20986626 338.57851937 257.92576753 337.11528259 257.63891602 335.65258789 C257.22238514 333.52616494 256.81394794 331.3984085 256.41015625 329.26953125 C256.27609879 328.56945953 256.14204132 327.86938782 256.00392151 327.14810181 C255.1877248 322.67475917 254.83420587 318.34762174 254.6875 313.79296875 C254.44042114 309.85287233 254.26316375 307.48122316 251.33984375 304.71875 C249.70289214 303.53209915 249.70289214 303.53209915 247.9375 302.5 C247.35202393 302.09604004 246.76654785 301.69208008 246.16333008 301.27587891 C242.95206388 299.09198791 239.5956648 297.22619743 236.1875 295.375 C233 293 233 293 232.4375 289.1875 C232.58368963 287.78673752 232.77301592 286.38995869 233 285 C233.08378906 284.26652344 233.16757812 283.53304688 233.25390625 282.77734375 C233.47448675 280.84813969 233.73468113 278.92356179 234 277 C234 276.34 234 275.68 234 275 C228.555 273.515 228.555 273.515 223 272 C220.95341777 276.09316445 220.61293724 279.12522149 220.4375 283.5625 C220.11834812 290.64495565 220.11834812 290.64495565 219 294 C214.52400236 293.48845741 212.24804353 292.09995644 209 289 C207.06390549 285.76496126 205.62540408 282.29738226 204.12695312 278.84375 C202.3712105 275.04141445 201.48390859 273.31001331 197.84765625 270.98046875 C195 269 195 269 193.8984375 265.42578125 C193.70213415 264.05764162 193.52850779 262.6860998 193.375 261.3125 C193.15768873 259.86857292 192.93246703 258.42581346 192.69921875 256.984375 C192.53172119 255.94893555 192.53172119 255.94893555 192.36083984 254.89257812 C191.60044754 250.9043771 189.9996495 247.50109281 188 244 C187.59136719 243.26652344 187.18273437 242.53304687 186.76171875 241.77734375 C179.79331729 230.33346192 168.29707633 222.76412445 157 216 C156.34 216 155.68 216 155 216 C154.05728998 219.25639659 154.05728998 219.25639659 154 223 C157.60611772 227.33718252 162.05614089 230.22928913 166.75 233.25 C173.92567568 237.92567568 173.92567568 237.92567568 175 239 C175.13637859 240.87293261 175.23261351 242.74880869 175.3125 244.625 C175.66414524 249.95242542 176.58621696 254.71733546 178.0625 259.8125 C179.98251123 266.62363473 181.32652483 271.58893615 178.6875 278.375 C177 281 177 281 174 283 C169.40162059 274.71921615 166.99827932 266.41426048 164.68359375 257.27734375 C162.15079834 247.67628207 159.10829787 237.17967915 150.046875 231.8515625 C146.72724396 230.1179774 143.64161912 228.87334447 140 228 C140.11381897 225.06167355 140.24056551 222.1248935 140.375 219.1875 C140.4059375 218.35412109 140.436875 217.52074219 140.46875 216.66210938 C140.50742187 215.85966797 140.54609375 215.05722656 140.5859375 214.23046875 C140.6173584 213.49207764 140.6487793 212.75368652 140.68115234 211.99291992 C141 210 141 210 143 207 C142.16339844 206.53851563 141.32679688 206.07703125 140.46484375 205.6015625 C133.08027636 201.47949484 125.95862471 197.10123971 118.97631836 192.32666016 C116.06375816 190.34062577 113.21690945 188.45641174 110 187 C109.92007813 188.15371094 109.84015625 189.30742187 109.7578125 190.49609375 C109.06525251 196.05492772 106.46619758 200.30318245 103.70703125 205.08789062 C101.15545998 209.79320754 100.6194402 212.61114821 102 218 C102.88329643 220.53958234 102.88329643 220.53958234 105 222 C110.71607012 222.49276467 116.32351513 221.73584063 122 221 C122.24492188 221.55945313 122.48984375 222.11890625 122.7421875 222.6953125 C125.363309 228.3171662 128.47653687 233.12966691 132.1875 238.0625 C136.09447961 243.28974974 138.31383002 247.36702348 139 254 C138.06542969 253.96519531 137.13085938 253.93039063 136.16796875 253.89453125 C118.23517089 253.52496427 97.78625723 255.27174316 83.0625 266.5625 C79.61527389 269.05540928 79.61527389 269.05540928 76.91796875 268.8125 C74.75 268.0625 74.75 268.0625 72.53125 267.05859375 C69.47933365 265.78225219 66.49690381 265.24293552 63.25 264.625 C59.46101579 263.75401996 57.10309317 263.06670735 53.8125 260.9375 C51.27943373 256.8321857 50.61660557 252.73958015 50 248 C48.99582031 247.84144531 47.99164063 247.68289062 46.95703125 247.51953125 C33.87876629 245.34169833 22.68503984 241.01438242 10.875 235 C9.62916138 234.37726196 9.62916138 234.37726196 8.3581543 233.74194336 C3.98207334 231.44485082 0.96556761 229.76904652 -1 225 C-2.32148628 217.80524135 1.63432785 212.10028077 5 206 C4.67 205.67 4.34 205.34 4 205 C2.68 205 1.36 205 0 205 C-4.75799047 199.88956579 -4.20201663 194.38163011 -4.16796875 187.76953125 C-3.97110148 183.35146347 -3.26622303 179.17049003 -2.453125 174.83203125 C-1.54846429 169.17790183 -0.75338723 163.86991916 -4 159 C-5.86767612 162.81086474 -7.14995545 165.95182429 -7.45703125 170.19921875 C-8.01920667 177.92272295 -8.70446769 183.74053607 -14.75585938 189.03466797 C-17.22842362 190.97306016 -19.74234699 192.84532627 -22.28759766 194.68701172 C-28.19495464 199.21649074 -32.71440374 205.62939721 -37.375 211.375 C-46.89652235 223.05825446 -56.50403156 233.75880763 -70 241 C-76.25263744 241.24048606 -79.39616959 238.41071875 -83.7890625 234.3984375 C-85.92109622 232.74641824 -85.92109622 232.74641824 -88.5234375 233.1640625 C-90.96816927 233.91780725 -90.96816927 233.91780725 -92.98828125 235.0390625 C-97.61987734 237.25143655 -103.58514199 236.7264207 -108.40234375 235.27734375 C-111.54388757 233.91361559 -114.45746284 232.32996932 -117.3828125 230.55078125 C-118.55457031 229.84501953 -118.55457031 229.84501953 -119.75 229.125 C-120.79414062 228.44824219 -120.79414062 228.44824219 -121.859375 227.7578125 C-124.0406174 226.75896709 -124.0406174 226.75896709 -126.5 227.6640625 C-129.00555812 229.00297012 -131.05773926 230.4474745 -133.25 232.25 C-146.88011444 243.16322396 -146.88011444 243.16322396 -157 243 C-156.64895109 236.42660923 -154.05732497 232.24705313 -150.5 226.8125 C-149.48488929 225.23869486 -148.47428658 223.66197066 -147.46875 222.08203125 C-147.01951172 221.39343018 -146.57027344 220.7048291 -146.10742188 219.99536133 C-144.99520967 217.99136874 -144.44358817 216.23892984 -144 214 C-150.40298069 217.90036038 -156.45854637 222.05032784 -162.4375 226.5625 C-171.87901085 233.63461718 -180.90224575 239.23264912 -193 239 C-193.37952295 232.80112515 -192.8352113 228.5522888 -190 223 C-194.37188726 223.4840844 -196.03692215 224.70264814 -198.875 228 C-201.60413977 230.85738882 -202.77786919 231.92723301 -206.625 233.1875 C-210.44958226 232.97502321 -212.75068585 231.98128911 -216 230 C-215.70544888 222.34167083 -212.62827658 216.65738822 -209 210 C-210.32 209.34 -211.64 208.68 -213 208 C-213.81791016 208.6496875 -213.81791016 208.6496875 -214.65234375 209.3125 C-220.41737512 213.56975393 -223.85900487 214.68009477 -231 214 C-231.25394531 214.69867188 -231.50789062 215.39734375 -231.76953125 216.1171875 C-232.11371094 217.02726563 -232.45789063 217.93734375 -232.8125 218.875 C-233.14894531 219.77992188 -233.48539063 220.68484375 -233.83203125 221.6171875 C-235 224 -235 224 -238 226 C-241.77077011 226.57381284 -243.48089924 226.3185391 -246.75 224.3125 C-250.61382309 220.06353699 -250.46543267 213.44939533 -251 208 C-251.15033691 209.04341553 -251.15033691 209.04341553 -251.30371094 210.10791016 C-251.77018578 213.28279506 -252.25985471 216.45368682 -252.75 219.625 C-252.90726563 220.71941406 -253.06453125 221.81382812 -253.2265625 222.94140625 C-254.16797774 228.9157722 -254.99098876 233.37543192 -259 238 C-261.70879335 239.35439668 -264.00933268 239.06501451 -267 239 C-268.32 236.36 -269.64 233.72 -271 231 C-275.14768172 231.54630662 -275.14768172 231.54630662 -276.6875 234.6875 C-277.93864856 237.84516065 -278.59977256 240.6380895 -279 244 C-277.5410574 243.52269162 -276.08286504 243.04308958 -274.625 242.5625 C-273.81289063 242.29566406 -273.00078125 242.02882812 -272.1640625 241.75390625 C-269.98968201 241.04820271 -269.98968201 241.04820271 -268 240 C-265.3276379 239.86584528 -262.67749512 239.95681459 -260 240 C-258.50409291 242.99181417 -258.57256989 244.6416206 -259 248 C-261.12172242 251.91593064 -263.79361646 255.43824766 -266.51171875 258.95703125 C-268.58393382 261.68238001 -269.94482936 263.48139596 -270.3125 266.9375 C-270.1578125 267.9584375 -270.1578125 267.9584375 -270 269 C-268.906875 268.979375 -267.81375 268.95875 -266.6875 268.9375 C-263 269 -263 269 -260 270 C-262.12922071 277.64014488 -265.57131366 283.46198058 -270 290 C-270.59425781 290.96421875 -271.18851563 291.9284375 -271.80078125 292.921875 C-272.67283203 294.29085937 -272.67283203 294.29085937 -273.5625 295.6875 C-274.33787109 296.93080078 -274.33787109 296.93080078 -275.12890625 298.19921875 C-277 300 -277 300 -280.11328125 300.3671875 C-283.40480005 299.94850987 -283.8157862 299.28349625 -286 297 C-287.93350299 296.93128551 -287.93350299 296.93128551 -290 298 C-291.65932933 299.93277686 -293.00236843 301.74892852 -294.375 303.875 C-295.00269287 304.83152466 -295.00269287 304.83152466 -295.64306641 305.80737305 C-299.95320104 312.58587013 -303.67497345 319.68921385 -307.375 326.8125 C-307.96974121 327.95638184 -308.56448242 329.10026367 -309.17724609 330.27880859 C-315.46505068 340.74630922 -315.46505068 340.74630922 -317.69482422 352.20629883 C-316.77609905 354.57800432 -315.7771911 354.95473195 -313.5 356 C-311.298817 357.01037908 -310.25156421 357.50939288 -309.13671875 359.68359375 C-308.9356109 363.09093538 -310.14093144 365.92223761 -311.3125 369.0625 C-321.86319626 399.39711279 -313.13928943 429.4583814 -304.18457031 459.06347656 C-302.2773671 465.38081845 -300.44909733 471.72071014 -298.625 478.0625 C-298.30370117 479.16037842 -297.98240234 480.25825684 -297.65136719 481.3894043 C-290.47082114 506.29952986 -290.47082114 506.29952986 -295.703125 517.05078125 C-296.54568848 518.79161987 -296.54568848 518.79161987 -297.40527344 520.56762695 C-298.0199442 521.81603523 -298.63485918 523.06432328 -299.25 524.3125 C-299.88350729 525.61334562 -300.51664013 526.91437366 -301.14941406 528.21557617 C-305.69671272 537.5272956 -310.49609847 546.69406111 -315.36181641 555.84326172 C-319.73898241 564.20212359 -323.41891144 572.77411508 -326.84277344 581.5637207 C-327.21692383 582.51077881 -327.59107422 583.45783691 -327.9765625 584.43359375 C-328.29705566 585.26947021 -328.61754883 586.10534668 -328.94775391 586.96655273 C-330 589 -330 589 -333 591 C-335.04296875 591.1953125 -335.04296875 591.1953125 -337.1875 591.125 C-338.445625 591.08375 -339.70375 591.0425 -341 591 C-339.43085625 597.01505106 -337.89765918 602.09649328 -334 607 C-333.34 607.33 -332.68 607.66 -332 608 C-332.6544161 611.53384695 -333.7650548 614.16906941 -336 617 C-339.13671875 617.48828125 -339.13671875 617.48828125 -342.6875 617.3125 C-343.86699219 617.26738281 -345.04648437 617.22226562 -346.26171875 617.17578125 C-347.61716797 617.08876953 -347.61716797 617.08876953 -349 617 C-353.07199683 609.96489833 -354.19965882 603.0733796 -353 595 C-352.02356936 593.64931093 -351.02756414 592.31220795 -350 591 C-350.67477348 587.86459452 -350.67477348 587.86459452 -353.1796875 586.75390625 C-354.97124254 585.96198699 -356.76290857 585.17031881 -358.5546875 584.37890625 C-361.17669989 582.90035933 -362.39035438 581.51040758 -364 579 C-364.78375 579.350625 -365.5675 579.70125 -366.375 580.0625 C-372.39990754 581.62066574 -377.34098159 581.34535766 -382.94921875 578.5078125 C-394.26323121 571.46865388 -394.26323121 571.46865388 -395.6015625 566.984375 C-395.67226499 560.24407102 -393.70488108 554.7595762 -391.13525391 548.62207031 C-389.62155078 544.96941932 -388.42079274 541.9748098 -389 538 C-389.66 537.34 -390.32 536.68 -391 536 C-392.98366695 535.86693843 -392.98366695 535.86693843 -395 537 C-403.98913117 547.11277256 -404.9778369 564.91234244 -407.4909668 577.66259766 C-408 580 -408 580 -409 583 C-425.5625 581.4375 -425.5625 581.4375 -429 578 C-429.28899239 572.5732572 -429.1925282 567.12155636 -429.1875 561.6875 C-429.18789276 560.78433044 -429.18828552 559.88116089 -429.18869019 558.95062256 C-429.17795287 537.5020306 -428.60077668 516.06526084 -428.0625 494.625 C-427.40196484 468.25132682 -426.76043545 441.87936176 -426.375 415.5 C-426.35985226 414.46847872 -426.35985226 414.46847872 -426.3443985 413.41611862 C-425.86355548 380.27880204 -425.8946725 347.13994772 -426 314 C-425.21842529 313.89308838 -424.43685059 313.78617676 -423.6315918 313.67602539 C-420.70350194 313.21687401 -420.70350194 313.21687401 -418.89453125 310.18359375 C-418.18489332 308.94371031 -417.49185962 307.69422887 -416.8125 306.4375 C-416.03540374 305.07463611 -415.25669869 303.71268855 -414.4765625 302.3515625 C-413.87376465 301.28470215 -413.87376465 301.28470215 -413.25878906 300.19628906 C-411.15032322 296.51751506 -408.92477155 292.91391064 -406.6875 289.3125 C-406.27927002 288.64210693 -405.87104004 287.97171387 -405.45043945 287.28100586 C-402.3521024 282.28255904 -402.3521024 282.28255904 -399.8046875 280.23828125 C-396.70700226 276.39634696 -396.8882399 271.67001045 -396.4375 266.875 C-396.20360947 264.71580903 -395.96659552 262.55695426 -395.7265625 260.3984375 C-395.60958008 259.32432617 -395.49259766 258.25021484 -395.37207031 257.14355469 C-394.83071468 252.56973895 -394.0975663 248.03748801 -393.3125 243.5 C-393.18093506 242.7354248 -393.04937012 241.97084961 -392.91381836 241.18310547 C-392.61349047 239.45465482 -392.30749225 237.72719049 -392 236 C-391.2471875 235.81566406 -390.494375 235.63132813 -389.71875 235.44140625 C-382.7894037 233.54929106 -376.94251203 231.0946385 -370.75 227.5 C-370.06599121 227.10304932 -369.38198242 226.70609863 -368.67724609 226.29711914 C-367.36549317 225.53338815 -366.05411353 224.76901555 -364.74316406 224.00390625 C-356.65255266 219.34443929 -348.71500751 216.64779798 -339.375 218.9375 C-338.26125 219.288125 -337.1475 219.63875 -336 220 C-323.73891911 207.43446789 -314.19761876 193.02717983 -304.8125 178.25 C-295.03990456 162.87966744 -295.03990456 162.87966744 -291.4375 157.625 C-290.73496094 156.58601562 -290.03242188 155.54703125 -289.30859375 154.4765625 C-283.53131849 148.27894404 -274.87314168 147.90568126 -266.9140625 146.62695312 C-259.78162656 145.38810706 -252.86338154 143.72021247 -247.5 138.625 C-245.82958975 135.70178206 -245.31026204 133.33531693 -245 130 C-249.41137209 131.49671553 -253.15141854 132.99055436 -257 135.625 C-261.10661175 138.28459698 -264.08283478 139.08195275 -269 139 C-271.3125 137.125 -271.3125 137.125 -273 135 C-273.99 134.67 -274.98 134.34 -276 134 C-273.86446032 122.58503195 -259.37461139 111.66538833 -250.875 104.375 C-241.93105875 96.67379585 -234.92418824 89.04307986 -228.875 78.96875 C-226.06675438 74.52236111 -226.06675438 74.52236111 -224 73 C-221.55493164 73.1184082 -221.55493164 73.1184082 -218.66015625 73.80078125 C-217.59603516 74.03603516 -216.53191406 74.27128906 -215.43554688 74.51367188 C-214.32244141 74.77728516 -213.20933594 75.04089844 -212.0625 75.3125 C-195.03449533 79.30685464 -195.03449533 79.30685464 -179 74 C-179 73.34 -179 72.68 -179 72 C-184.80171647 70.00294657 -189.95417217 69.72374035 -196.0625 69.8125 C-196.98119873 69.81894531 -197.89989746 69.82539062 -198.84643555 69.83203125 C-206.25963777 69.91493993 -213.61736016 70.30516331 -221 71 C-219.91756857 64.52003885 -214.44459075 59.88016689 -209.4453125 56.03515625 C-194.66101487 46.24323739 -177.81704564 42.26171346 -160.47875977 39.84765625 C-157.63396154 39.45024872 -154.79273868 39.02950038 -151.95108032 38.61032104 C-150.48129787 38.39357528 -149.01138773 38.17769361 -147.54135132 37.962677 C-122.12415943 34.45443862 -122.12415943 34.45443862 -97.34765625 28.015625 C-93.86017256 26.95757861 -90.63469157 26.27892118 -87 26 C-83.98310545 27.65633427 -81.58112754 29.4915134 -79 31.75 C-76.08927453 33.56920342 -74.37586015 33.54013762 -71 33 C-68.73216487 31.51559883 -66.97829728 29.88409265 -65 28 C-67.12780579 25.65941363 -69.11562221 24.29299694 -72 23 C-71.875 21.25 -71.875 21.25 -71 19 C-65.5423804 14.66855587 -59.60512215 13.16194748 -52.98828125 11.2890625 C-48.02948636 9.8227098 -44.19889583 8.1365246 -40 5 C-38.515 4.01 -38.515 4.01 -37 3 C-34.11573425 3.7263407 -31.47034994 4.54979501 -28.6875 5.5625 C-27.88803955 5.8411792 -27.0885791 6.1198584 -26.26489258 6.40698242 C-23.83779374 7.25676904 -21.41818662 8.12520898 -19 9 C-17.62501824 9.49484234 -16.25001952 9.98963758 -14.875 10.484375 C-12.5528441 11.32074471 -10.23340306 12.16472934 -7.91796875 13.01953125 C-1.32972644 15.23325122 5.38983041 16.31870588 11.9375 13.5625 C14.80477437 12.29806053 14.80477437 12.29806053 16 11 C15.09636719 10.67386719 14.19273437 10.34773437 13.26171875 10.01171875 C11.49248047 9.35623047 11.49248047 9.35623047 9.6875 8.6875 C8.51574219 8.25824219 7.34398437 7.82898438 6.13671875 7.38671875 C1.73940345 5.44270016 1.73940345 5.44270016 0 3 C0 2.01 0 1.02 0 0 Z " fill="#221E72" transform="translate(429,0)"/>
<path d="M0 0 C0.61669998 6.90703976 -0.88757018 10.47759424 -5 16 C-4.20078125 15.79503906 -3.4015625 15.59007812 -2.578125 15.37890625 C-1.47984375 15.10949219 -0.3815625 14.84007812 0.75 14.5625 C1.81734375 14.29566406 2.8846875 14.02882813 3.984375 13.75390625 C13.43752101 11.77496476 22.91076468 11.94985196 32.5 12.4375 C43.13586722 12.87545602 53.76823805 13.19718719 64.4128418 13.28811646 C65.94370055 13.30408789 67.47450483 13.32731443 69.00512695 13.35861206 C82.18095064 13.61814359 94.08501724 12.09155129 106 6 C106.66 6 107.32 6 108 6 C110.31771657 10.63543313 109.68099703 16.72074463 108.234375 21.5625 C105.90151821 26.68821351 102.96554381 30.02548247 98.8671875 33.8515625 C92.64680372 40.59813847 92.69645421 46.52013557 93 55.375 C93.03757415 58.02875378 93.04921637 60.68186765 93.0625 63.3359375 C93.09472656 64.49657715 93.12695312 65.6572168 93.16015625 66.85302734 C92.992193 70.15340278 92.7278582 72.17863169 91 75 C88.46899414 76.21020508 88.46899414 76.21020508 85.28515625 77.01953125 C84.12306641 77.31923828 82.96097656 77.61894531 81.76367188 77.92773438 C80.54228516 78.21970703 79.32089844 78.51167969 78.0625 78.8125 C76.28262695 79.27946289 76.28262695 79.27946289 74.46679688 79.75585938 C65.10742938 82.09441633 55.20672831 83.74967169 45.8828125 80.32421875 C42.13386593 77.68751152 41.05297683 73.29290555 40 69 C40 68.34 40 67.68 40 67 C38.35 67.33 36.7 67.66 35 68 C34.68546875 69.05960938 34.3709375 70.11921875 34.046875 71.2109375 C33.61538554 72.59920792 33.18304956 73.98721544 32.75 75.375 C32.54503906 76.07367187 32.34007812 76.77234375 32.12890625 77.4921875 C30.49612484 82.63792285 30.49612484 82.63792285 28.28588867 84.25097656 C25.25735237 85.24334539 23.09277119 84.91062372 19.94140625 84.4609375 C18.74966797 84.29207031 17.55792969 84.12320313 16.33007812 83.94921875 C15.08677734 83.75972656 13.84347656 83.57023438 12.5625 83.375 C11.35400391 83.20871094 10.14550781 83.04242187 8.90039062 82.87109375 C-1.96271178 81.27683019 -12.69590007 79.05848368 -22 73 C-22.4640625 73.36351562 -22.928125 73.72703125 -23.40625 74.1015625 C-30.64583225 79.36916899 -38.62582236 82.11787754 -47 85 C-48.40886991 85.49604905 -49.81772426 85.99214226 -51.2265625 86.48828125 C-61.37582888 90 -61.37582888 90 -66 90 C-68.44644627 86.12646007 -69.18207782 83.27079545 -69.09375 78.7734375 C-69.08021484 77.87802246 -69.06667969 76.98260742 -69.05273438 76.06005859 C-69.02663086 75.04032959 -69.02663086 75.04032959 -69 74 C-68.52095215 73.7412207 -68.0419043 73.48244141 -67.54833984 73.21582031 C-54.10381162 65.88815931 -41.37148961 57.76319337 -28.74755859 49.12011719 C-21.06195096 43.88329701 -13.28982237 39.2290234 -5 35 C-13.94534574 29.44188918 -22.34723617 30.88899108 -32.33203125 33.09765625 C-36.49419795 34.12157585 -40.62439695 35.21928941 -44.73046875 36.44921875 C-47 37 -47 37 -51 37 C-51.19916016 38.46373047 -51.19916016 38.46373047 -51.40234375 39.95703125 C-51.57894531 41.22933594 -51.75554687 42.50164063 -51.9375 43.8125 C-52.19853516 45.70935547 -52.19853516 45.70935547 -52.46484375 47.64453125 C-53 51 -53 51 -54 54 C-55.46373047 54.19916016 -55.46373047 54.19916016 -56.95703125 54.40234375 C-58.22933594 54.57894531 -59.50164062 54.75554688 -60.8125 54.9375 C-62.07707031 55.11152344 -63.34164062 55.28554688 -64.64453125 55.46484375 C-67.98321703 55.90392455 -67.98321703 55.90392455 -71 57 C-72.56118428 57.06740865 -74.1250252 57.08514456 -75.6875 57.0625 C-76.89986328 57.04896484 -76.89986328 57.04896484 -78.13671875 57.03515625 C-78.75160156 57.02355469 -79.36648437 57.01195312 -80 57 C-82.10513865 53.5791497 -82.74047732 50.97626179 -82 47 C-79.62056475 44.98032021 -77.54353039 43.54479838 -74.875 42 C-73.30431572 41.04097321 -71.73402209 40.08130641 -70.1640625 39.12109375 C-69.32391602 38.61690918 -68.48376953 38.11272461 -67.61816406 37.59326172 C-64.03372922 35.41198404 -60.52232221 33.1239045 -57.00219727 30.84082031 C-9.27175144 0 -9.27175144 0 0 0 Z " fill="#221E72" transform="translate(254,527)"/>
<path d="M0 0 C0.69609375 0.05800781 1.3921875 0.11601563 2.109375 0.17578125 C3.965625 0.33046875 3.965625 0.33046875 5.859375 0.48828125 C7.88924306 4.63356735 7.97111446 7.61137352 7.546875 12.17578125 C7.44761719 13.31402344 7.34835938 14.45226562 7.24609375 15.625 C7.11847656 16.89988281 6.99085938 18.17476562 6.859375 19.48828125 C6.85607178 20.28621094 6.85276855 21.08414063 6.84936523 21.90625 C6.70344109 26.8310727 6.14239242 29.77742458 2.68359375 33.40234375 C1.32269635 34.65910872 -0.05734781 35.89537077 -1.453125 37.11328125 C-19.81998075 54.33794497 -31.7443483 76.37308536 -44.07421875 98.08984375 C-45.09613075 99.8894498 -46.11827679 101.68892297 -47.140625 103.48828125 C-47.71441895 104.49858398 -48.28821289 105.50888672 -48.87939453 106.54980469 C-50.64222504 109.64038821 -52.42081176 112.72140102 -54.203125 115.80078125 C-54.75162109 116.76878662 -55.30011719 117.73679199 -55.86523438 118.73413086 C-56.38021484 119.6185083 -56.89519531 120.50288574 -57.42578125 121.4140625 C-57.87832275 122.20208252 -58.33086426 122.99010254 -58.79711914 123.80200195 C-59.24047607 124.35847412 -59.68383301 124.91494629 -60.140625 125.48828125 C-63.140625 125.48828125 -63.140625 125.48828125 -65.7109375 123.53515625 C-70.22717532 120.83981614 -73.8538339 120.82379285 -79.015625 120.73828125 C-79.89476563 120.70863281 -80.77390625 120.67898437 -81.6796875 120.6484375 C-83.83285045 120.57822566 -85.98673985 120.53093244 -88.140625 120.48828125 C-86.84552845 113.7196977 -84.82521357 107.82986783 -82.015625 101.55078125 C-81.58967041 100.58277588 -81.16371582 99.61477051 -80.72485352 98.61743164 C-77.97955164 92.43822942 -75.13050976 86.31058446 -72.23828125 80.19921875 C-71.89954987 79.48330063 -71.56081848 78.76738251 -71.21182251 78.0297699 C-69.4718176 74.35653715 -67.72465928 70.68687504 -65.96972656 67.02075195 C-62.92329025 60.62705146 -59.96846642 54.26410926 -57.46484375 47.6328125 C-57.08271729 46.6229126 -56.70059082 45.6130127 -56.30688477 44.57250977 C-55.64194075 42.76258359 -55.00523096 40.94186449 -54.40600586 39.10913086 C-51.83840939 32.0754081 -47.69676229 29.71323433 -41.140625 26.48828125 C-40.15336426 25.97716797 -39.16610352 25.46605469 -38.14892578 24.93945312 C-33.92424792 22.76094775 -29.67868202 20.62664763 -25.41796875 18.51953125 C-17.39377333 14.44343689 -9.65080969 9.92713906 -3.99511719 2.77514648 C-2.140625 0.48828125 -2.140625 0.48828125 0 0 Z " fill="#221E72" transform="translate(152.140625,86.51171875)"/>
<path d="M0 0 C5.6988647 1.38154296 8.49471618 5.64067457 12 10 C12.6496875 10.78761719 13.299375 11.57523438 13.96875 12.38671875 C19.70407855 19.49711582 19.70407855 19.49711582 20 23 C18.18571036 27.31618677 15.25063344 31.87468328 11 34 C7.25 34.6875 7.25 34.6875 4 35 C-1.91601459 25.58646735 -5.30512602 18.36673706 -4 7 C-2.94300892 4.25641881 -1.74547928 2.40003401 0 0 Z " fill="#221E72" transform="translate(56,609)"/>
</svg>
